<svg width="412" height="110" viewBox="0 0 412 110" fill="none" xmlns="http://www.w3.org/2000/svg">
<rect x="17" y="13" width="394" height="96" fill="#EC6A5C" stroke="black" stroke-width="2"/>
<rect x="1" y="1" width="394" height="96" fill="#EC6A5C" stroke="black" stroke-width="2"/>
<path d="M101.947 37.1761V31.0909H130.617V37.1761H119.93V66H112.634V37.1761H101.947ZM143.337 66.5114C140.644 66.5114 138.326 65.9659 136.383 64.875C134.451 63.7727 132.962 62.2159 131.917 60.2045C130.871 58.1818 130.349 55.7898 130.349 53.0284C130.349 50.3352 130.871 47.9716 131.917 45.9375C132.962 43.9034 134.434 42.3182 136.332 41.1818C138.241 40.0455 140.479 39.4773 143.048 39.4773C144.775 39.4773 146.383 39.7557 147.871 40.3125C149.371 40.858 150.678 41.6818 151.792 42.7841C152.917 43.8864 153.792 45.2727 154.417 46.9432C155.042 48.6023 155.354 50.5455 155.354 52.7727V54.767H133.246V50.267H148.519C148.519 49.2216 148.292 48.2955 147.837 47.4886C147.383 46.6818 146.752 46.0511 145.945 45.5966C145.15 45.1307 144.224 44.8977 143.167 44.8977C142.065 44.8977 141.087 45.1534 140.235 45.6648C139.394 46.1648 138.735 46.8409 138.258 47.6932C137.781 48.5341 137.536 49.4716 137.525 50.5057V54.7841C137.525 56.0795 137.763 57.1989 138.241 58.142C138.729 59.0852 139.417 59.8125 140.303 60.3239C141.19 60.8352 142.241 61.0909 143.457 61.0909C144.263 61.0909 145.002 60.9773 145.673 60.75C146.343 60.5227 146.917 60.1818 147.394 59.7273C147.871 59.2727 148.235 58.7159 148.485 58.0568L155.201 58.5C154.86 60.1136 154.161 61.5227 153.104 62.7273C152.059 63.9205 150.707 64.8523 149.048 65.5227C147.4 66.1818 145.496 66.5114 143.337 66.5114ZM181.877 47.2841L175.229 47.6932C175.116 47.125 174.871 46.6136 174.496 46.1591C174.121 45.6932 173.627 45.3239 173.013 45.0511C172.411 44.767 171.69 44.625 170.849 44.625C169.724 44.625 168.775 44.8636 168.002 45.3409C167.229 45.8068 166.843 46.4318 166.843 47.2159C166.843 47.8409 167.093 48.3693 167.593 48.8011C168.093 49.233 168.951 49.5795 170.167 49.8409L174.906 50.7955C177.451 51.3182 179.349 52.1591 180.599 53.3182C181.849 54.4773 182.474 56 182.474 57.8864C182.474 59.6023 181.968 61.108 180.957 62.4034C179.957 63.6989 178.582 64.7102 176.832 65.4375C175.093 66.1534 173.087 66.5114 170.815 66.5114C167.349 66.5114 164.587 65.7898 162.531 64.3466C160.485 62.892 159.286 60.9148 158.934 58.4148L166.076 58.0398C166.292 59.0966 166.815 59.9034 167.644 60.4602C168.474 61.0057 169.536 61.2784 170.832 61.2784C172.104 61.2784 173.127 61.0341 173.9 60.5455C174.684 60.0455 175.082 59.4034 175.093 58.6193C175.082 57.9602 174.803 57.4205 174.258 57C173.712 56.5682 172.871 56.2386 171.735 56.0114L167.201 55.108C164.644 54.5966 162.741 53.7102 161.491 52.4489C160.252 51.1875 159.633 49.5795 159.633 47.625C159.633 45.9432 160.087 44.4943 160.996 43.2784C161.917 42.0625 163.207 41.125 164.866 40.4659C166.536 39.8068 168.491 39.4773 170.729 39.4773C174.036 39.4773 176.638 40.1761 178.536 41.5739C180.445 42.9716 181.559 44.875 181.877 47.2841ZM200.972 39.8182V45.2727H185.205V39.8182H200.972ZM188.785 33.5455H196.046V57.9545C196.046 58.625 196.148 59.1477 196.353 59.5227C196.558 59.8864 196.842 60.142 197.205 60.2898C197.58 60.4375 198.012 60.5114 198.501 60.5114C198.842 60.5114 199.183 60.483 199.523 60.4261C199.864 60.358 200.126 60.3068 200.308 60.2727L201.45 65.6761C201.086 65.7898 200.575 65.9205 199.915 66.0682C199.256 66.2273 198.455 66.3239 197.512 66.358C195.762 66.4261 194.228 66.1932 192.91 65.6591C191.603 65.125 190.586 64.2955 189.859 63.1705C189.131 62.0455 188.773 60.625 188.785 58.9091V33.5455ZM230.891 39.8182V45.2727H214.732V39.8182H230.891ZM218.431 66V37.9261C218.431 36.0284 218.8 34.4545 219.539 33.2045C220.289 31.9545 221.312 31.017 222.607 30.392C223.903 29.767 225.374 29.4545 227.022 29.4545C228.136 29.4545 229.153 29.5398 230.073 29.7102C231.005 29.8807 231.698 30.0341 232.153 30.1705L230.857 35.625C230.573 35.5341 230.221 35.4489 229.8 35.3693C229.391 35.2898 228.971 35.25 228.539 35.25C227.471 35.25 226.727 35.5 226.306 36C225.886 36.4886 225.675 37.1761 225.675 38.0625V66H218.431ZM235.327 66V39.8182H242.589V66H235.327ZM238.975 36.4432C237.896 36.4432 236.969 36.0852 236.197 35.3693C235.435 34.642 235.055 33.7727 235.055 32.7614C235.055 31.7614 235.435 30.9034 236.197 30.1875C236.969 29.4602 237.896 29.0966 238.975 29.0966C240.055 29.0966 240.975 29.4602 241.737 30.1875C242.509 30.9034 242.896 31.7614 242.896 32.7614C242.896 33.7727 242.509 34.642 241.737 35.3693C240.975 36.0852 240.055 36.4432 238.975 36.4432ZM248.406 66V39.8182H255.445V44.3864H255.718C256.195 42.7614 256.996 41.5341 258.121 40.7045C259.246 39.8636 260.542 39.4432 262.008 39.4432C262.371 39.4432 262.763 39.4659 263.184 39.5114C263.604 39.5568 263.974 39.6193 264.292 39.6989V46.142C263.951 46.0398 263.479 45.9489 262.877 45.8693C262.275 45.7898 261.724 45.75 261.224 45.75C260.156 45.75 259.201 45.983 258.36 46.4489C257.531 46.9034 256.871 47.5398 256.383 48.358C255.906 49.1761 255.667 50.1193 255.667 51.1875V66H248.406ZM289.83 47.2841L283.183 47.6932C283.069 47.125 282.825 46.6136 282.45 46.1591C282.075 45.6932 281.58 45.3239 280.967 45.0511C280.364 44.767 279.643 44.625 278.802 44.625C277.677 44.625 276.728 44.8636 275.955 45.3409C275.183 45.8068 274.796 46.4318 274.796 47.2159C274.796 47.8409 275.046 48.3693 275.546 48.8011C276.046 49.233 276.904 49.5795 278.12 49.8409L282.859 50.7955C285.404 51.3182 287.302 52.1591 288.552 53.3182C289.802 54.4773 290.427 56 290.427 57.8864C290.427 59.6023 289.921 61.108 288.91 62.4034C287.91 63.6989 286.535 64.7102 284.785 65.4375C283.046 66.1534 281.04 66.5114 278.768 66.5114C275.302 66.5114 272.54 65.7898 270.484 64.3466C268.438 62.892 267.239 60.9148 266.887 58.4148L274.029 58.0398C274.245 59.0966 274.768 59.9034 275.597 60.4602C276.427 61.0057 277.489 61.2784 278.785 61.2784C280.058 61.2784 281.08 61.0341 281.853 60.5455C282.637 60.0455 283.035 59.4034 283.046 58.6193C283.035 57.9602 282.756 57.4205 282.211 57C281.665 56.5682 280.825 56.2386 279.688 56.0114L275.154 55.108C272.597 54.5966 270.694 53.7102 269.444 52.4489C268.205 51.1875 267.586 49.5795 267.586 47.625C267.586 45.9432 268.04 44.4943 268.95 43.2784C269.87 42.0625 271.16 41.125 272.819 40.4659C274.489 39.8068 276.444 39.4773 278.683 39.4773C281.989 39.4773 284.592 40.1761 286.489 41.5739C288.398 42.9716 289.512 44.875 289.83 47.2841ZM308.925 39.8182V45.2727H293.158V39.8182H308.925ZM296.738 33.5455H303.999V57.9545C303.999 58.625 304.102 59.1477 304.306 59.5227C304.511 59.8864 304.795 60.142 305.158 60.2898C305.533 60.4375 305.965 60.5114 306.454 60.5114C306.795 60.5114 307.136 60.483 307.477 60.4261C307.817 60.358 308.079 60.3068 308.261 60.2727L309.403 65.6761C309.039 65.7898 308.528 65.9205 307.869 66.0682C307.21 66.2273 306.408 66.3239 305.465 66.358C303.715 66.4261 302.181 66.1932 300.863 65.6591C299.556 65.125 298.539 64.2955 297.812 63.1705C297.085 62.0455 296.727 60.625 296.738 58.9091V33.5455Z" fill="#EFF5DD"/>
</svg>
