<svg width="300" height="110" viewBox="0 0 300 110" fill="none" xmlns="http://www.w3.org/2000/svg">
<rect x="12" y="13" width="287" height="96" fill="#EC6A5C" stroke="black" stroke-width="2"/>
<rect x="1" y="1" width="287" height="96" fill="#EC6A5C" stroke="black" stroke-width="2"/>
<path d="M83.4148 31.0909V66H76.0341V31.0909H83.4148ZM95.4361 31.0909V34.7727C95.4361 35.8182 95.2315 36.8864 94.8224 37.9773C94.4247 39.0568 93.8906 40.0795 93.2202 41.0455C92.5497 42 91.8168 42.8125 91.0213 43.483L87.8168 41.5909C88.3849 40.6932 88.8849 39.6989 89.3168 38.608C89.7599 37.517 89.9815 36.25 89.9815 34.8068V31.0909H95.4361ZM100.409 31.0909H109.511L119.125 54.5455H119.534L129.148 31.0909H138.25V66H131.091V43.2784H130.801L121.767 65.8295H116.892L107.858 43.1932H107.568V66H100.409V31.0909ZM162.821 31.0909V66H155.44V31.0909H162.821ZM198.092 31.0909V66H191.717L176.53 44.0284H176.274V66H168.893V31.0909H175.371L190.439 53.0455H190.746V31.0909H198.092ZM212.73 31.0909L212.065 55.5341H205.827L205.145 31.0909H212.73ZM208.946 66.4432C207.821 66.4432 206.855 66.0455 206.048 65.25C205.241 64.4432 204.844 63.4773 204.855 62.3523C204.844 61.2386 205.241 60.2841 206.048 59.4886C206.855 58.6932 207.821 58.2955 208.946 58.2955C210.026 58.2955 210.974 58.6932 211.793 59.4886C212.611 60.2841 213.026 61.2386 213.037 62.3523C213.026 63.1023 212.827 63.7898 212.44 64.4148C212.065 65.0284 211.571 65.5227 210.957 65.8977C210.344 66.2614 209.673 66.4432 208.946 66.4432Z" fill="#EFF5DD"/>
</svg>
